# xmcd
#
# Track frame offsets:
#	150
#	16111
#	30109
#	45729
#	64637
#	78194
#	90570
#	106322
#	125747
#	145113
#	167481
#	187529
#	204121
#	222110
#	239868
#
# Disc length: 3428 seconds
#
# Revision: 0
# Processed by: cddbd v1.5.2PL0 Copyright (c) Steve Scherf et al.
# Submitted via: audiograbber 1.83.01
#
DISCID=b30d620f
DTITLE=George Strait - It Just Comes Natural
DYEAR=2006
DGENRE=Country
TTITLE0=Give It Away
TTITLE1=She Told Me So
TTITLE2=That's My Kind of Woman
TTITLE3=Wrapped
TTITLE4=It Just Comes Natural
TTITLE5=He Must Have Really Hurt You
TTITLE6=A Heart Like Hers
TTITLE7=Why Can't I Leave Her Alone
TTITLE8=One Foot in Front of the Other
TTITLE9=I Ain't Her Cowboy Anymore
TTITLE10=Texas Cookin'
TTITLE11=A Better Rain
TTITLE12=How 'Bout Them Cowgirls
TTITLE13=What Say
TTITLE14=Come On Joe
EXTD=
EXTT0=
EXTT1=
EXTT2=
EXTT3=
EXTT4=
EXTT5=
EXTT6=
EXTT7=
EXTT8=
EXTT9=
EXTT10=
EXTT11=
EXTT12=
EXTT13=
EXTT14=
PLAYORDER=
